<?xml version="1.0" encoding="UTF-8" standalone="no"?>
<!-- Created with Inkscape (http://www.inkscape.org/) -->

<svg
   width="1920"
   height="1080"
   viewBox="0 0 508 285.75"
   version="1.1"
   id="svg5"
   inkscape:version="1.1 (c68e22c387, 2021-05-23)"
   sodipodi:docname="401-SeaJell.svg"
   xmlns:inkscape="http://www.inkscape.org/namespaces/inkscape"
   xmlns:sodipodi="http://sodipodi.sourceforge.net/DTD/sodipodi-0.dtd"
   xmlns="http://www.w3.org/2000/svg"
   xmlns:svg="http://www.w3.org/2000/svg">
  <sodipodi:namedview
     id="namedview7"
     pagecolor="#505050"
     bordercolor="#ffffff"
     borderopacity="1"
     inkscape:pageshadow="0"
     inkscape:pageopacity="0"
     inkscape:pagecheckerboard="1"
     inkscape:document-units="px"
     showgrid="false"
     inkscape:zoom="0.5"
     inkscape:cx="863"
     inkscape:cy="129"
     inkscape:window-width="1920"
     inkscape:window-height="1051"
     inkscape:window-x="-9"
     inkscape:window-y="-9"
     inkscape:window-maximized="1"
     inkscape:current-layer="layer1" />
  <defs
     id="defs2">
    <rect
       x="657.62546"
       y="355.69679"
       width="730.00562"
       height="179.9164"
       id="rect2373" />
  </defs>
  <g
     inkscape:label="Error Text"
     inkscape:groupmode="layer"
     id="layer1">
    <g
       id="g11479">
      <g
         id="g11434"
         transform="rotate(75,311.75086,99.852873)">
        <rect
           style="font-variation-settings:normal;opacity:1;fill:#ffffff;fill-opacity:1;fill-rule:evenodd;stroke:#696969;stroke-width:1.32292;stroke-linecap:butt;stroke-linejoin:miter;stroke-miterlimit:4;stroke-dasharray:none;stroke-dashoffset:0;stroke-opacity:1;stop-color:#000000;stop-opacity:1"
           id="rect4320"
           width="170.29109"
           height="269.46088"
           x="256.76035"
           y="13.678993" />
        <g
           id="g11412">
          <g
             id="g8761">
            <rect
               style="font-variation-settings:normal;opacity:1;fill:none;fill-opacity:1;fill-rule:evenodd;stroke:#ff1d00;stroke-width:2.64583;stroke-linecap:butt;stroke-linejoin:miter;stroke-miterlimit:4;stroke-dasharray:none;stroke-dashoffset:0;stroke-opacity:1;stop-color:#000000;stop-opacity:1"
               id="rect5708"
               width="59.195736"
               height="27.083015"
               x="361.75171"
               y="25.922316"
               ry="6.5773039" />
            <g
               id="g8754"
               transform="translate(0,2.7803894)">
              <circle
                 style="opacity:1;fill:#ff0000;fill-opacity:1;stroke:none;stroke-width:1.32292;stroke-miterlimit:4;stroke-dasharray:none;stroke-opacity:1"
                 id="path5968"
                 cx="409.78662"
                 cy="49.619255"
                 r="8.7689199" />
              <text
                 xml:space="preserve"
                 style="font-size:17.2347px;line-height:1.25;font-family:sans-serif;text-align:center;text-anchor:middle;fill:#ffffff;stroke-width:0.264583"
                 x="321.01666"
                 y="69.913681"
                 id="text8387"
                 transform="scale(1.2764933,0.7833962)"><tspan
                   sodipodi:role="line"
                   id="tspan8385"
                   style="font-style:normal;font-variant:normal;font-weight:normal;font-stretch:normal;font-family:'Josefin Sans';-inkscape-font-specification:'Josefin Sans';fill:#ffffff;stroke-width:0.264583"
                   x="321.01666"
                   y="69.913681">!</tspan></text>
            </g>
          </g>
          <g
             id="g9148"
             transform="translate(-1.9489885,-0.82195704)">
            <path
               style="fill:none;stroke:#ff1d00;stroke-width:1.05833;stroke-linecap:butt;stroke-linejoin:miter;stroke-miterlimit:4;stroke-dasharray:none;stroke-opacity:1"
               d="m 388.77329,37.374849 h 19.56967"
               id="path8796" />
            <path
               style="fill:none;stroke:#ff1d00;stroke-width:1.05833;stroke-linecap:butt;stroke-linejoin:miter;stroke-miterlimit:4;stroke-dasharray:none;stroke-opacity:1"
               d="m 388.77329,33.150795 h 19.56967"
               id="path8796-1" />
            <path
               style="fill:none;stroke:#ff1d00;stroke-width:1.05833;stroke-linecap:butt;stroke-linejoin:miter;stroke-miterlimit:4;stroke-dasharray:none;stroke-opacity:1"
               d="m 388.77329,41.598901 h 19.56967"
               id="path8796-13" />
          </g>
          <g
             id="g11383">
            <g
               id="g11374">
              <rect
                 style="font-variation-settings:normal;fill:none;fill-opacity:1;fill-rule:evenodd;stroke:#ff1d00;stroke-width:1.32292;stroke-linecap:butt;stroke-linejoin:miter;stroke-miterlimit:4;stroke-dasharray:none;stroke-dashoffset:0;stroke-opacity:1;stop-color:#000000"
                 id="rect5708-1"
                 width="13.762735"
                 height="15.424526"
                 x="369.20419"
                 y="31.223532"
                 ry="0" />
              <g
                 id="g11366"
                 transform="translate(0.1858019)">
                <circle
                   style="opacity:1;fill:#ff0000;fill-opacity:1;stroke:none;stroke-width:1.32292;stroke-miterlimit:4;stroke-dasharray:none;stroke-opacity:1"
                   id="path9493"
                   cx="375.89975"
                   cy="35.955704"
                   r="3.5917895" />
                <g
                   id="g11360"
                   transform="translate(-1.9432611,-18.970596)">
                  <path
                     style="fill:#ff0000;fill-opacity:1;stroke:none;stroke-width:0.264583px;stroke-linecap:butt;stroke-linejoin:miter;stroke-opacity:1"
                     d="m 377.78652,56.472934 0.0565,9.111608 -7.06716,0.03411 c 0.028,-8.120983 7.01064,-9.145715 7.01064,-9.145715 z"
                     id="path9718"
                     sodipodi:nodetypes="cccc" />
                  <path
                     style="fill:#ff0000;fill-opacity:1;stroke:none;stroke-width:0.264583px;stroke-linecap:butt;stroke-linejoin:miter;stroke-opacity:1"
                     d="m 377.78652,56.472934 0.0565,9.111608 7.06716,0.03411 c -0.028,-8.120983 -7.12366,-9.145718 -7.12366,-9.145718 z"
                     id="path9718-1"
                     sodipodi:nodetypes="ccccc" />
                </g>
              </g>
            </g>
          </g>
        </g>
      </g>
      <g
         id="g12763"
         transform="translate(2.9270582,0.62470805)">
        <g
           id="g3496"
           transform="matrix(0.67423174,0,0,0.67788694,23.937641,51.160128)"
           style="stroke-width:1.47917">
          <g
             id="g1676"
             style="stroke-width:1.47917">
            <rect
               style="font-variation-settings:normal;opacity:1;fill:#00d0f6;fill-opacity:1;fill-rule:evenodd;stroke:#007baa;stroke-width:3.91362;stroke-linecap:butt;stroke-linejoin:miter;stroke-miterlimit:4;stroke-dasharray:none;stroke-dashoffset:0;stroke-opacity:1;stop-color:#000000;stop-opacity:1"
               id="rect1171"
               width="112.16771"
               height="155.39331"
               x="188.77005"
               y="113.80918"
               ry="16.414787" />
            <rect
               style="font-variation-settings:normal;opacity:1;vector-effect:none;fill:#ffffff;fill-opacity:1;fill-rule:evenodd;stroke-width:59.6123;stroke-linecap:butt;stroke-linejoin:miter;stroke-miterlimit:4;stroke-dasharray:none;stroke-dashoffset:0;stroke-opacity:1;stop-color:#000000;stop-opacity:1"
               id="rect1551"
               width="80.979607"
               height="66.206306"
               x="204.36411"
               y="133.50693"
               ry="14.226149" />
          </g>
          <g
             id="g3367"
             transform="matrix(0.50087331,0,0,1,124.67226,-6.6007733)"
             style="stroke-width:2.09003" />
          <g
             id="g3460"
             style="stroke-width:1.47917">
            <path
               style="fill:none;stroke:#ffffff;stroke-width:1.95682;stroke-linecap:butt;stroke-linejoin:miter;stroke-miterlimit:4;stroke-dasharray:none;stroke-opacity:1"
               d="m 210.10926,225.15615 c 0.67686,-0.41017 1.82133,0.51271 2.46222,0 0.28484,-0.22787 -0.16313,-0.76805 0,-1.09432 2.27715,-4.55429 -0.0756,1.16987 2.18864,-1.09432 0.25793,-0.25793 -0.28484,-0.86644 0,-1.09432 0.16227,-0.12981 4.42512,0 4.92443,0 0.36478,0 0.80251,-0.21886 1.09432,0 0.21887,0.16415 -0.23459,0.67999 0,0.82074 0.39099,0.2346 1.01186,-0.28484 1.36791,0 0.64088,0.51272 -0.51272,1.82133 0,2.46222 0.22787,0.28484 0.72954,0 1.09431,0 0.36478,0 0.72955,0 1.09432,0 0.82074,0 1.67306,0.22548 2.46222,0 2.84837,-0.81382 0.48422,-3.54625 1.3679,-4.65085 0.22787,-0.28484 0.72955,0 1.09432,0 2.37102,0 4.74205,0 7.11307,0 0.45597,0 1.01185,-0.28484 1.3679,0 0.28484,0.22787 -0.16313,0.76805 0,1.09431 0.2307,0.46141 0.72955,0.72955 1.09432,1.09432 1.73869,1.7387 2.30224,1.09432 4.65086,1.09432 0.6661,0 3.27256,0.33453 3.83011,0 0.2346,-0.14075 -0.21886,-0.65659 0,-0.82074 2.91819,0 -0.36477,0.36478 1.09432,-1.09432 0.33649,-0.33649 4.4472,0 4.65086,0 1.33704,0 3.80275,-0.42063 4.92444,0 4.72273,1.77103 -1.57497,-0.22036 1.09431,1.91506 0.35605,0.28484 1.04548,-0.32241 1.3679,0 0.32242,0.32242 -0.28484,1.01185 0,1.3679 0.22788,0.28484 0.83639,-0.25793 1.09432,0 0.58035,0.58035 -0.51271,1.82133 0,2.46222 0.22787,0.28484 0.72955,0 1.09432,0 2.70161,0 0.59276,0.45597 1.3679,-1.09432 0.2307,-0.4614 0.88481,-0.62291 1.09431,-1.09432 0.18518,-0.41667 -0.32242,-1.04548 0,-1.3679 0.32242,-0.32241 1.01185,0.28484 1.3679,0 0.28485,-0.22787 -0.32626,-0.93119 0,-1.09432 1.06037,-0.53017 2.37103,0 3.55655,0 3.92131,0 7.84262,0 11.76393,0"
               id="path1780" />
            <path
               style="fill:none;stroke:#ffffff;stroke-width:1.95682;stroke-linecap:butt;stroke-linejoin:miter;stroke-miterlimit:4;stroke-dasharray:none;stroke-opacity:1"
               d="m 207.92063,242.93884 c -0.35001,-5.43874 3.46534,-0.72955 4.65085,-1.91506 0.32242,-0.32242 -0.28484,-1.01185 0,-1.3679 0.22787,-0.28484 0.72955,0 1.09432,0 0.49932,0 4.76216,-0.12982 4.92444,0 0.28484,0.22787 -0.25794,0.83639 0,1.09432 0.25793,0.25793 0.72954,0 1.09431,0 0.39985,0 4.59489,0.056 4.65086,0 0.25794,-0.25793 -0.28484,-0.86645 0,-1.09432 0.35605,-0.28484 0.95123,0.18519 1.3679,0 0.47141,-0.20951 0.62292,-0.8848 1.09432,-1.09432 0.2427,-0.10787 8.37578,-0.0631 8.48097,0 0.51357,0.30814 -0.44799,2.83496 0,3.28296 0.0505,0.0505 4.13362,0 4.65086,0 0.82074,0 1.69374,0.28818 2.46222,0 0.42693,-0.1601 0.66175,-0.67655 1.09432,-0.82074 0.72478,-0.2416 5.86814,0.18826 6.01875,0 0.28484,-0.35605 -0.32242,-1.04548 0,-1.3679 0.52026,-0.72544 1.88187,0.58035 2.46222,0 0.58035,-0.58035 -0.51271,-1.82133 0,-2.46222 0.22787,-0.28484 0.72955,0 1.09432,0 0.45596,0 0.91193,0 1.3679,0 0.57823,0 3.18916,-0.36737 3.55654,0 0.25793,0.25794 -0.25794,0.83639 0,1.09432 0.58035,0.58035 1.71221,-0.33333 2.46221,0 0.47141,0.20951 0.63292,0.86362 1.09432,1.09432 0.3283,0.16415 2.25704,-0.20518 2.46222,0 0.32242,0.32242 -0.28484,1.01185 0,1.3679 0.22787,0.28484 0.8364,-0.25793 1.09431,0 0.25794,0.25793 -0.28482,0.86644 0,1.09432 2.10653,1.68522 1.14499,-1.90999 1.3679,-2.18864 0.44122,-0.55153 2.99974,0.44544 3.55655,0 0.28483,-0.22787 -0.25794,-0.83639 0,-1.09432 0.51586,-0.51587 1.45907,0 2.18864,0 0.56594,0 4.72397,-0.15033 4.92442,0 0.21886,0.16415 -0.21886,0.65659 0,0.82074 0.29184,0.21886 0.86646,-0.28484 1.09432,0 1.4591,1.82387 -1.91506,1.3679 1.36789,1.3679"
               id="path1784" />
          </g>
          <g
             inkscape:label="Jello"
             transform="matrix(0.06727383,0.03109639,-0.03094544,0.06697322,245.00515,105.69324)"
             fill="#ffffff"
             fill-rule="evenodd"
             stroke="#000000"
             stroke-width="28.0374"
             id="g18-1-8"
             style="display:inline;fill:#ed0e00;fill-opacity:1;stroke:#a91300;stroke-width:50.0091;stroke-miterlimit:4;stroke-dasharray:none;stroke-opacity:1">
            <path
               d="m 231.72,489.2 c 58.227,-43.023 110.09,8.1095 110.2,46.784 L 233.28,513.632 231.7205,489.2 Z"
               id="path2-4-3"
               style="fill:#ed0e00;fill-opacity:1;stroke:#a91300;stroke-width:50.0091;stroke-miterlimit:4;stroke-dasharray:none;stroke-opacity:1" />
            <path
               d="m 313.86,483.48 c 38.327,-30.604 96.354,-13.039 109.16,4.1586 l -2.0793,76.934 -103.45,-3.6388 -3.6388,-77.454 z"
               id="path4-1-7"
               style="fill:#ed0e00;fill-opacity:1;stroke:#a91300;stroke-width:50.0091;stroke-miterlimit:4;stroke-dasharray:none;stroke-opacity:1" />
            <path
               d="m 508.27,497 c -65.925,-59.301 -122.68,21.07 -120.6,39.507 L 477.08,569.256 508.269,497 Z"
               id="path6-2-8"
               style="fill:#ed0e00;fill-opacity:1;stroke:#a91300;stroke-width:50.0091;stroke-miterlimit:4;stroke-dasharray:none;stroke-opacity:1" />
            <path
               d="M 229.65,491.28 C 79.3,470.598 36.1,808.01 32.12,876.99 c 21.763,34.54 60.901,40.121 98.767,47.824 -8.4789,-5.5313 -10.377,-20.808 -6.4346,-44.732 10.719,-65.05 63.573,-347.9 146.79,-364.89 -8.9773,-10.142 -20.25,-19.263 -41.586,-23.912 z"
               id="path8-0-2"
               style="fill:#ed0e00;fill-opacity:1;stroke:#a91300;stroke-width:50.0091;stroke-miterlimit:4;stroke-dasharray:none;stroke-opacity:1" />
            <path
               sodipodi:nodetypes="cccccccc"
               d="m 268.11,517.27 c 30.293,1.1406 60.959,1.0365 83.172,29.11 -11.548,12.789 -26.429,23.78 -29.738,39.117 -28.451,131.85 -61.517,319.22 -44.077,349.71 -63.747,25.858 -115.39,26.409 -148.67,-11.436 -9.0811,-8.2464 -8.0518,-26.603 -6.2379,-45.745 37.622,-154.39 32.79266,-355.75874 145.55,-360.76 z"
               id="path10-0-2"
               style="fill:#ed0e00;fill-opacity:1;stroke:#a91300;stroke-width:50.0091;stroke-miterlimit:4;stroke-dasharray:none;stroke-opacity:1" />
            <path
               d="m 338.81,556.78 c 25.788,-31.355 98.701,-19.605 102.93,0 57.247,152.95 74.114,344.04 69.657,384.67 -62.129,39.327 -169.72,38.979 -237.04,0 -2.3462,-95.563 22.284,-258.18 44.45,-348.38 4.134,-16.822 12.793,-28.754 20.008,-36.287 z"
               id="path12-3-6"
               style="fill:#ed0e00;fill-opacity:1;stroke:#a91300;stroke-width:50.0091;stroke-miterlimit:4;stroke-dasharray:none;stroke-opacity:1" />
            <path
               d="m 501.85,526.63 c -25.095,-6.137 -54.721,-12.479 -76.934,15.595 11.548,12.789 26.429,23.78 29.738,39.117 28.451,131.85 71.914,325.46 54.473,355.95 64.786,20.66 113.31,6.6554 138.27,-17.674 9.0811,-8.2464 0.77422,-26.603 -1.0396,-45.745 -37.622,-154.39 -67.109,-317.5 -144.51,-347.24 z"
               id="path14-3-0"
               style="fill:#ed0e00;fill-opacity:1;stroke:#a91300;stroke-width:50.0091;stroke-miterlimit:4;stroke-dasharray:none;stroke-opacity:1" />
            <path
               sodipodi:nodetypes="cccccccc"
               d="m 518.67,495.44 c 28.779,-7.3714 73.737,14.231 81.461,26.619 70.187,112.57 123.74,273.71 132.71,333.1 4.228,38.698 -43.227,56.756 -81.093,64.458 8.4789,-5.5313 -0.16156,-29.81 -7.0809,-53.049 -22.155,-74.406 -53.177,-334.38 -167.58,-347.22 9.8236,-9.7655 4.43871,-11.47478 41.586,-23.912 z"
               id="path16-3-4"
               style="fill:#ed0e00;fill-opacity:1;stroke:#a91300;stroke-width:50.0091;stroke-miterlimit:4;stroke-dasharray:none;stroke-opacity:1" />
          </g>
        </g>
        <path
           style="fill:none;stroke:#007baa;stroke-width:5.29167;stroke-linecap:butt;stroke-linejoin:miter;stroke-miterlimit:4;stroke-dasharray:none;stroke-opacity:1"
           d="m 181.74931,84.471677 h 14.98925 l 7.83545,17.425273 -7.47921,24.84122 h -16.82794 l -6.79616,-24.93834 z"
           id="path11990-3"
           sodipodi:nodetypes="ccccccc" />
      </g>
    </g>
    <text
       xml:space="preserve"
       transform="matrix(0.45693665,0,0,0.45693665,-214.41604,-93.92573)"
       id="text2371"
       style="font-size:83.1496px;line-height:1.25;font-family:sans-serif;text-align:center;white-space:pre;shape-inside:url(#rect2373);stroke-width:0.579037"><tspan
         x="843.9813"
         y="429.26517"
         id="tspan1191"><tspan
           style="font-weight:bold;font-family:'Josefin Sans';-inkscape-font-specification:'Josefin Sans Bold'"
           id="tspan1189">Error 401</tspan></tspan></text>
  </g>
</svg>
