<?xml version="1.0" encoding="UTF-8" standalone="no"?>
<!-- Creator: CorelDRAW SE -->

<svg
   xml:space="preserve"
   width="500"
   height="500"
   version="1.1"
   style="clip-rule:evenodd;fill-rule:evenodd;image-rendering:optimizeQuality;shape-rendering:geometricPrecision;text-rendering:geometricPrecision"
   viewBox="0 0 7912.3725 7912.3725"
   id="svg155"
   sodipodi:docname="paint-brush-5703905.svg"
   inkscape:version="1.1 (c68e22c387, 2021-05-23)"
   xmlns:inkscape="http://www.inkscape.org/namespaces/inkscape"
   xmlns:sodipodi="http://sodipodi.sourceforge.net/DTD/sodipodi-0.dtd"
   xmlns="http://www.w3.org/2000/svg"
   xmlns:svg="http://www.w3.org/2000/svg"><sodipodi:namedview
   id="namedview157"
   pagecolor="#505050"
   bordercolor="#ffffff"
   borderopacity="1"
   inkscape:pageshadow="0"
   inkscape:pageopacity="0"
   inkscape:pagecheckerboard="1"
   inkscape:document-units="mm"
   showgrid="false"
   units="px"
   inkscape:zoom="0.34304926"
   inkscape:cx="470.77787"
   inkscape:cy="526.1635"
   inkscape:window-width="1920"
   inkscape:window-height="1051"
   inkscape:window-x="-9"
   inkscape:window-y="-9"
   inkscape:window-maximized="1"
   inkscape:current-layer="Vrstva_x0020_1" />
 <defs
   id="defs4">
  <style
   type="text/css"
   id="style2">
   <![CDATA[
    .fil0 {fill:#0F0F0F}
   ]]>
  </style>
 </defs>
 <g
   id="Vrstva_x0020_1"
   inkscape:label="Vrstva 1"
   inkscape:groupmode="layer">
  <metadata
   id="CorelCorpID_0Corel-Layer" />
  
  
  
  
  
  
  
  
  
  
  
  
  
  
  
 <g
   id="g1688"
   style="clip-rule:evenodd;fill-rule:evenodd;stroke-width:1.13001;image-rendering:optimizeQuality;shape-rendering:geometricPrecision;text-rendering:geometricPrecision"
   transform="matrix(0.88494672,0,0,0.88494672,-158.78822,-6904.7691)"><path
     class="fil0"
     d="m 6346,13930 c 312,-1 1193,-118 933,324 -126,213 -651,490 -906,482 z m -76,-585 c 236,-1 468,36 693,27 l 623,-17 c 208,25 383,15 465,246 45,131 -4,472 -47,609 -188,596 -1134,1181 -1659,1191 l 24,-423 c 329,-24 1004,-365 1077,-711 149,-711 -569,-543 -728,-556 -129,-10 -271,7 -411,5 z m -1722,-651 c 26,110 75,54 312,63 1543,61 1041,-305 1225,801 48,286 50,544 75,828 22,241 -53,1648 -82,1700 -543,447 -3279,251 -4011,109 -442,-86 -372,-235 -378,-740 -10,-817 114,-1748 246,-2558 28,-173 87,-299 116,-452 326,16 630,-20 955,-24 288,-4 486,55 972,40 333,-11 658,36 995,31 352,-6 675,-22 1021,18 l 1,118 c -55,35 -71,29 -150,42 -70,12 -119,17 -193,18 -128,2 -247,-6 -375,5 -152,13 -645,-43 -729,1 z m 151,-432 c 53,-116 163,-209 239,-323 l 450,-658 c 177,-226 194,-259 301,-228 18,83 -28,115 -84,193 -201,282 -318,490 -598,783 -122,129 -140,274 -308,233 z m 1213,-1256 c 38,-94 178,-151 316,-244 115,-78 178,-166 308,-220 -81,305 -302,475 -624,464 z m -176,-94 c 14,-145 273,-341 375,-447 103,-108 294,-327 431,-374 15,381 -2,326 -284,544 -118,91 -375,273 -522,277 z m -273,-220 c -8,-109 -33,-185 102,-365 65,-85 190,-164 292,-209 118,-53 222,-103 338,-159 98,-46 250,-159 317,-179 -60,105 -456,305 -580,393 -379,271 -309,411 -469,519 z m 1162,-869 c -22,142 -139,178 -248,275 l -506,488 c -52,56 -190,260 -266,189 -74,-68 68,-223 152,-324 153,-182 638,-476 868,-628 z M 4092,9391 c 46,465 -31,936 -20,1406 9,329 46,1156 -11,1438 -92,34 -79,11 -157,36 -18,-130 -68,-172 -70,-320 -12,-605 46,-1115 5,-1810 -15,-263 11,-482 14,-732 z m -1425,-425 1067,3306 c -435,-46 -610,-45 -1023,-44 -236,0 -174,-58 -249,-92 -44,20 -99,37 -147,54 -118,41 -118,27 -159,9 l -11,-117 c 119,-51 314,-63 313,-194 -120,26 -244,133 -374,99 l -19,-105 c 119,-128 281,-29 285,-206 -122,14 -207,103 -342,92 l -32,-148 c 91,-32 172,-87 261,-123 122,-50 144,-11 239,-114 l -41,-101 c -277,-15 -291,60 -514,156 -49,-53 -84,-152 -110,-234 86,-73 345,-102 260,-199 -40,-22 -214,101 -290,113 l -30,-163 c 75,-67 293,-114 310,-188 -67,-65 -216,99 -362,72 l -37,-142 c 69,-17 139,-45 207,-68 108,-38 115,-27 118,-125 -120,19 -193,109 -366,121 l -31,-223 c 76,-17 351,-70 383,-91 -9,-120 -178,-31 -421,23 l -30,-182 c 132,-75 416,-70 501,-169 -71,-214 -402,-31 -570,-26 l -132,-571 c 233,-98 418,-168 663,-223 109,-24 218,-88 331,-123 92,-28 255,-54 352,-74 z m 1503,3284 c -23,-951 11,-1911 26,-2862 l 231,11 c -2,111 -34,214 -36,334 l 19,1086 c 6,249 7,497 -1,747 -8,238 -43,465 -49,703 z M 3949,8867 c 99,-3 232,-22 300,-12 l 101,366 -508,16 c 11,-148 80,-240 107,-370 z m 2359,7203 c 17,-126 -2,-304 30,-408 108,-48 203,-49 319,-87 109,-36 173,-83 279,-127 530,-220 1049,-637 1211,-1203 60,-208 112,-496 53,-708 -135,-486 -663,-399 -1192,-378 -109,4 -556,-4 -679,-31 -6,-2 -13,-4 -19,-5 l -57,-19 c -65,-77 -32,-689 -96,-757 -93,-105 -876,-50 -1070,-59 l 813,-1085 c 161,36 191,55 361,-26 523,-248 450,-582 452,-923 0,-204 172,-501 302,-649 205,-234 458,-381 174,-496 -142,137 -370,319 -560,405 -151,68 -166,47 -323,152 -318,212 -689,250 -887,535 -54,77 -124,246 -116,339 16,180 97,205 155,325 -53,98 -163,187 -235,294 -159,241 -433,718 -643,867 4,-391 28,-760 20,-1162 -8,-379 -27,-761 -17,-1127 4,-148 80,-339 1,-473 -169,-288 -162,-730 -221,-957 -42,-162 -42,-345 -243,-328 -77,99 -256,574 -295,715 -24,84 -190,494 -184,562 7,65 44,67 30,206 -34,344 2,1515 -10,1994 -100,-71 -669,-1926 -733,-2190 -34,-142 -84,-466 -254,-470 -276,-6 -1444,404 -1600,521 9,65 44,72 70,155 l 143,583 c 61,235 127,539 210,762 71,189 463,1326 472,1455 -143,65 -90,38 -129,183 -21,78 -59,158 -77,237 -67,300 -188,1277 -230,1602 -24,192 -23,375 -51,581 -25,178 0,386 -21,587 -25,227 20,819 277,918 61,23 995,126 1109,130 390,13 783,39 1176,52 527,18 1193,2 1707,-127 101,-25 157,-65 232,-86 142,-40 64,48 212,10 17,-10 116,-159 134,-289 z"
     id="path113"
     style="fill:#ffffff;fill-opacity:1;stroke-width:1.13001" /><path
     class="fil0"
     d="m 1961,15907 c -33,103 94,82 185,86 l 902,48 -3,-64 c -98,-44 -432,-24 -560,-26 -95,-1 -175,-10 -269,-19 -80,-7 -198,-47 -255,-25 z"
     id="path115"
     style="fill:#ffffff;fill-opacity:1;stroke-width:1.13001" /><path
     class="fil0"
     d="m 4841,12990 12,52 c 61,6 70,-20 143,-28 239,-27 485,73 508,-39 -57,-45 -619,-42 -663,15 z"
     id="path117"
     style="fill:#ffffff;fill-opacity:1;stroke-width:1.13001" /><path
     class="fil0"
     d="m 4757,13321 607,15 2,-59 c -113,-11 -573,-64 -609,44 z"
     id="path119"
     style="fill:#ffffff;fill-opacity:1;stroke-width:1.13001" /><path
     class="fil0"
     d="m 2162,15802 517,47 c -23,-107 -156,-90 -255,-101 -78,-9 -265,-49 -262,54 z"
     id="path121"
     style="fill:#ffffff;fill-opacity:1;stroke-width:1.13001" /><path
     class="fil0"
     d="m 2170,15545 c 63,33 268,26 341,0 -35,-71 -58,-52 -161,-44 -69,5 -133,14 -180,44 z"
     id="path123"
     style="fill:#ffffff;fill-opacity:1;stroke-width:1.13001" /></g></g>
</svg>
